<svg xmlns="http://www.w3.org/2000/svg" width="11" height="11" fill="#d9a0c1" viewBox="0 0 11 11">
  <path d="M2 5.5a.5.5 0 0 0-.5-.5h-1a.5.5 0 0 0 0 1h1a.5.5 0 0 0 .5-.5zM2.4 8a.6.6 0 0 0-.42.18l-.8.8A.6.6 0 0 0 1 9.4a.6.6 0 0 0 1.02.42l.8-.8A.6.6 0 0 0 2.4 8zm3.1-6a.5.5 0 0 0 .5-.5v-1a.5.5 0 0 0-1 0v1a.5.5 0 0 0 .5.5zm3.1 1a.6.6 0 0 0 .42-.18l.8-.8A.6.6 0 0 0 10 1.6a.6.6 0 0 0-.6-.6.6.6 0 0 0-.43.18l-.8.8A.6.6 0 0 0 8.6 3zm-6.62-.18a.6.6 0 0 0 .84-.84l-.8-.8A.6.6 0 0 0 1.6 1a.6.6 0 0 0-.42 1.02zM10.5 5h-1a.5.5 0 0 0 0 1h1a.5.5 0 0 0 0-1zM9.02 8.18a.6.6 0 0 0-.84.84l.8.8a.6.6 0 0 0 .42.18.6.6 0 0 0 .6-.6.6.6 0 0 0-.18-.43zM5.5 9a.5.5 0 0 0-.5.5v1a.5.5 0 0 0 1 0v-1a.5.5 0 0 0-.5-.5zm0-7A3.5 3.5 0 1 0 9 5.5 3.5 3.5 0 0 0 5.5 2zm0 6A2.5 2.5 0 1 1 8 5.5 2.5 2.5 0 0 1 5.5 8z"/>
</svg>
