<svg xmlns="http://www.w3.org/2000/svg" width="141.2" height="18.5" viewBox="0 0 141.2 18.5">
  <path d="M7 18.2h1.4L16.8.1h-2.2L8 15 2.5.2H0zm9.3 0l2.4-5.9h7.9l2.1 5.9h2.4L24.1.1h-1.7L14 18.2zm6.6-15.8L26 11h-6.7zM34 18.2h11.4v-1.7h-9.1V.1H34zm13.8 0h11.7v-1.6h-9.5V9.4h8.4V7.8H50V1.7h9.4V0H48zm15.3 0h2.2v-7.7a16.2 16.2 0 0 0 3.5-.1c4.4 7.5 5.7 8 8.4 8 .2 0 .4 0 .5-.3l.2-.8a4.8 4.8 0 0 1-2.5-1.3 34.4 34.4 0 0 1-4.3-6.1c1-.4 3.8-1.6 3.8-5a5.1 5.1 0 0 0-1.3-3.6C72.5.2 70.9 0 68 0h-4.9zM68 1.5c1.9 0 4.6 0 4.6 3.6s-3 4-5.2 4a15.8 15.8 0 0 1-2-.1V1.6l2.6-.1zM80.7 0v18.1h2.2V.1zm7.5 18.1l2.4-5.9h7.9l2.1 5.9h2.5L96 .1h-1.8L86 18.2zm6.6-15.8L98 11h-6.8zm10.8 15.8h2l-.4-14.8 13 15 1-.3V.1h-2l.5 14.4L107.3 0h-1.7zm20.7 0l2.4-5.9h7.9l2.1 5.9h2.5l-7-18.1h-1.8L124 18.2zm6.6-15.8L136 11h-6.7z"/>
</svg>
