<svg xmlns="http://www.w3.org/2000/svg" width="69.9" fill="#fff" height="17" viewBox="0 0 69.9 17">
  <path fill-rule="evenodd" d="M4.6 7.4V6.2H2.9v6.3h2v-3A2.2 2.2 0 0 1 5 8.2a1.4 1.4 0 0 1 .9-.5h.8V6.2a2 2 0 0 0-2.2 1.2zM13 8.4c0-1.9-1.4-2.3-2.7-2.3a3.7 3.7 0 0 0-1.9.4A1.7 1.7 0 0 0 7.6 8h1.8a.8.8 0 0 1 .8-.9.8.8 0 0 1 .9.8v.6a6 6 0 0 0-2.5.3 2.2 2.2 0 0 0-1.3 2 1.9 1.9 0 0 0 2 2 2 2 0 0 0 2-1.1 6.7 6.7 0 0 0 0 .8h1.8a5.7 5.7 0 0 1-.1-.7zm-3 3a.9.9 0 0 1-.9-.8c0-1 1.3-1 2-1 0 .7 0 1.9-1 1.9zM16.8 4.3l-1.9.7v1.2h-1.3v1.3H15v3c0 1.5.3 2.2 1.8 2.2a7 7 0 0 0 1.5-.2v-1h-.6c-.7 0-.8-.3-.8-1v-3h1.4V6.2h-1.4z"/>
  <path d="M19.2 3.5h2v1.6h-2zM19.3 6.2h1.9v6.3h-1.9z"/>
  <path fill-rule="evenodd" d="M22.2 9.4a3 3 0 0 0 3.3 3.3 3 3 0 0 0 3.3-3.3A3 3 0 0 0 25.5 6a3 3 0 0 0-3.3 3.3zm4.7 0c0 1-.2 2-1.4 2-1.1 0-1.3-1-1.3-2s.2-2 1.3-2c1.2 0 1.4 1 1.4 2zM31.8 15v-3.4a2 2 0 0 0 2 1.1c1.8 0 2.7-1.7 2.7-3.3 0-1.7-1-3.3-3-3.3a2.1 2.1 0 0 0-1.7.9v-.8h-2l.1 1.3v7.4zm1.4-7.7c1.2 0 1.3 1.1 1.3 2 0 1-.1 2.2-1.3 2.2-1 0-1.4-1.3-1.4-2.1 0-.9.3-2 1.4-2zM43.7 12.5v-4a4.3 4.3 0 0 0-.1-1A2.3 2.3 0 0 0 41.5 6a2.1 2.1 0 0 0-2 .9V3.5h-1.8v9h1.8V8.7c0-.9.6-1.4 1.2-1.4.9 0 1 .8 1.1 1.4v3.8zM46.2 8.8a2.2 2.2 0 0 0-1.3 2 1.9 1.9 0 0 0 2 2 2 2 0 0 0 2-1.1 6.6 6.6 0 0 0 0 .8h1.7a5.5 5.5 0 0 1 0-.7V8.4c0-1.9-1.5-2.3-2.7-2.3a3.7 3.7 0 0 0-1.9.4 1.7 1.7 0 0 0-.8 1.5H47a.8.8 0 0 1 .8-.9.8.8 0 0 1 .9.8v.6a6 6 0 0 0-2.5.3zm1.4 2.7a.9.9 0 0 1-1-1c0-1 1.4-1 2-1 0 .8 0 2-1 2zM53.7 7.4V6.2h-1.8v6.3h2v-3a2.2 2.2 0 0 1 .2-1.2 1.3 1.3 0 0 1 1-.5h.7V6.2a2 2 0 0 0-2.1 1.2zM64.8 6.1a2.4 2.4 0 0 0-2.2 1.2 2.4 2.4 0 0 0-2-1.2 2.2 2.2 0 0 0-2 1v-.8h-1.8v6.4h1.9V8.8c0-.9.5-1.4 1.1-1.4 1 0 1.1.8 1.1 1.4v3.9h2V8.8c0-.9.4-1.4 1-1.4 1 0 1.2.8 1.2 1.4v3.9h1.8V8.8a3.9 3.9 0 0 0-.1-1.5 2.4 2.4 0 0 0-2-1.2z"/>
  <path d="M0 15.1h69.9V17H0zM0 0h69.9v1.9H0z"/>
</svg>
